<?xml version="1.0" standalone="no"?><!DOCTYPE svg PUBLIC "-//W3C//DTD SVG 1.1//EN" "http://www.w3.org/Graphics/SVG/1.1/DTD/svg11.dtd"><svg t="1612755736921" class="icon" viewBox="0 0 1024 1024" version="1.1" xmlns="http://www.w3.org/2000/svg" p-id="4912" xmlns:xlink="http://www.w3.org/1999/xlink" width="64" height="64"><defs><style type="text/css"></style></defs><path d="M81.92 102.4m81.92 0l604.16 0q81.92 0 81.92 81.92l0 716.8q0 81.92-81.92 81.92l-604.16 0q-81.92 0-81.92-81.92l0-716.8q0-81.92 81.92-81.92Z" fill="#FAAD14" p-id="4913"></path><path d="M204.8 10.24m81.92 0l604.16 0q81.92 0 81.92 81.92l0 686.08q0 81.92-81.92 81.92l-604.16 0q-81.92 0-81.92-81.92l0-686.08q0-81.92 81.92-81.92Z" fill="#FFC53D" p-id="4914"></path><path d="M266.24 716.8v-60.33408l144.5888-154.9824 111.23712 99.6352L733.3888 368.64 911.36 590.04928V716.8a61.44 61.44 0 0 1-61.44 61.44H327.68a61.44 61.44 0 0 1-61.44-61.44z" fill="#FAAD14" p-id="4915"></path><path d="M410.8288 501.48352l109.52704 98.10944L353.3824 778.24H327.68a61.44 61.44 0 0 1-61.44-61.44v-60.33408l144.5888-154.9824z" fill="#FFF1B8" p-id="4916"></path><path d="M455.68 250.88m-97.28 0a97.28 97.28 0 1 0 194.56 0 97.28 97.28 0 1 0-194.56 0Z" fill="#FFF1B8" p-id="4917"></path></svg>